<svg width="149" height="49" viewBox="0 0 149 49" fill="none" xmlns="http://www.w3.org/2000/svg">
<rect width="149" height="48.1385" fill="#F3426E"/>
<path d="M19.5042 34.3845H25.8126V25.1419C25.8126 21.7309 27.7565 20.3739 30.3973 20.3739C31.0574 20.3739 31.7543 20.4839 32.5245 20.6306V13.8454C32.2678 13.8087 31.9744 13.772 31.6443 13.772C29.1136 13.772 27.0596 14.8723 25.5559 16.6328V14.2855H19.5042V34.3845Z" fill="white"/>
<path d="M44.8758 34.8613C51.5876 34.8613 55.9889 30.8268 55.9889 24.335C55.9889 17.8798 51.5876 13.772 44.8758 13.772C38.1272 13.772 33.726 17.8798 33.726 24.335C33.726 30.8268 38.1272 34.8613 44.8758 34.8613ZM44.8758 29.1763C42.0883 29.1763 40.2545 27.3058 40.2545 24.335C40.2545 21.4008 42.0883 19.457 44.8758 19.457C47.6265 19.457 49.4604 21.4008 49.4604 24.335C49.4604 27.3058 47.6265 29.1763 44.8758 29.1763Z" fill="white"/>
<path d="M77.8389 34.3845L70.8336 23.9682L77.7288 14.2855H70.4668L66.7624 19.7504L63.0947 14.2855H55.796L62.7646 24.0782L55.686 34.3845H62.7646L66.7257 28.6629L70.6868 34.3845H77.8389Z" fill="white"/>
<path d="M99.9295 34.3845L92.9242 23.9682L99.8195 14.2855H92.5575L88.8531 19.7504L85.1854 14.2855H77.8867L84.8553 24.0782L77.7767 34.3845H84.8553L88.8164 28.6629L92.7775 34.3845H99.9295Z" fill="white"/>
<path d="M120.473 24.335C120.473 18.1366 117.026 13.7354 110.13 13.7354C104.005 13.7354 99.604 17.9165 99.604 24.2983C99.604 30.7168 103.492 34.8246 110.314 34.8246C115.192 34.8246 118.199 33.1741 119.996 30.6434L116.109 27.3792C114.862 28.9563 112.918 29.7632 110.864 29.7632C108.076 29.7632 106.463 28.4795 105.949 26.1322H120.437C120.473 25.6187 120.473 24.7384 120.473 24.335ZM110.13 18.7601C113.028 18.7601 114.238 20.6673 114.348 22.3178H105.912C106.426 19.677 108.223 18.7601 110.13 18.7601Z" fill="white"/>
<path d="M125.442 34.9346C127.422 34.9346 129.036 33.3208 129.036 31.3036C129.036 29.323 127.422 27.6726 125.442 27.6726C123.461 27.6726 121.811 29.323 121.811 31.3036C121.811 33.3208 123.461 34.9346 125.442 34.9346Z" fill="white"/>
</svg>
